<?xml version="1.0" encoding="utf-8"?>
<!-- Generator: Adobe Illustrator 27.0.0, SVG Export Plug-In . SVG Version: 6.00 Build 0)  -->
<svg version="1.1" id="Layer_1" xmlns="http://www.w3.org/2000/svg" xmlns:xlink="http://www.w3.org/1999/xlink" x="0px" y="0px"
	 viewBox="0 0 205 56" style="enable-background:new 0 0 205 56;" xml:space="preserve">
<style type="text/css">
	.st0{fill:url(#SVGID_1_);}
	.st1{fill:url(#SVGID_00000139278852549757467510000006026872271650416519_);}
	.st2{fill:url(#SVGID_00000115483825163447194670000001173023768345369273_);}
	.st3{fill:#FFFFFF;}
</style>
<linearGradient id="SVGID_1_" gradientUnits="userSpaceOnUse" x1="130.9669" y1="1064.3728" x2="198.9669" y2="1074.8728" gradientTransform="matrix(1 0 0 1 0 -1022)">
	<stop  offset="0.3083" style="stop-color:#FFFFFF"/>
	<stop  offset="0.5067" style="stop-color:#0094FF"/>
	<stop  offset="0.6629" style="stop-color:#6B00D6"/>
	<stop  offset="0.832" style="stop-color:#FF0000"/>
	<stop  offset="1" style="stop-color:#FFF500"/>
</linearGradient>
<path class="st0" d="M1.5,35.9H204l-1.5,4H0L1.5,35.9z"/>
<linearGradient id="SVGID_00000062871707721691713490000010318448716150158984_" gradientUnits="userSpaceOnUse" x1="132.2622" y1="1055.9839" x2="200.2622" y2="1066.4839" gradientTransform="matrix(1 0 0 1 0 -1022)">
	<stop  offset="0.3083" style="stop-color:#FFFFFF"/>
	<stop  offset="0.5067" style="stop-color:#0094FF"/>
	<stop  offset="0.6629" style="stop-color:#6B00D6"/>
	<stop  offset="0.832" style="stop-color:#FF0000"/>
	<stop  offset="1" style="stop-color:#FFF500"/>
</linearGradient>
<path style="fill:url(#SVGID_00000062871707721691713490000010318448716150158984_);" d="M162.5,35.9c0,2.8-9.7,3.5-12.5,3.5
	s-15.5-3.5-13-3.5c1.5,0,8-1,12.5-1S158.5,35.9,162.5,35.9z"/>
<linearGradient id="SVGID_00000011710133868599654950000007826649902132257977_" gradientUnits="userSpaceOnUse" x1="131.8876" y1="1058.4104" x2="199.8876" y2="1068.9104" gradientTransform="matrix(1 0 0 1 0 -1022)">
	<stop  offset="0.3083" style="stop-color:#FFFFFF"/>
	<stop  offset="0.5067" style="stop-color:#0094FF"/>
	<stop  offset="0.6629" style="stop-color:#6B00D6"/>
	<stop  offset="0.832" style="stop-color:#FF0000"/>
	<stop  offset="1" style="stop-color:#FFF500"/>
</linearGradient>
<path style="fill:url(#SVGID_00000011710133868599654950000007826649902132257977_);" d="M162.5,39.9c-0.5-2-9.2-3-12-3
	s-16,3-13.5,3c1.5,0,8,1,12.5,1S158.5,39.9,162.5,39.9z"/>
<path class="st3" d="M60,48.4l-2.2,6.5h-0.9l-1.5-4.2l-1.5,4.2H53l-2.2-6.5h1.5l1.2,4.1l1.4-4.1h0.9l1.4,4.1l1.2-4.1H60z"/>
<path class="st3" d="M70.9,48.2c0.5,0,0.9,0.1,1.3,0.3s0.8,0.4,1.1,0.7c0.3,0.3,0.6,0.7,0.7,1.1c0.2,0.4,0.3,0.9,0.3,1.4
	s-0.1,1-0.3,1.4c-0.2,0.4-0.4,0.8-0.7,1.1c-0.3,0.3-0.7,0.5-1.1,0.7s-0.8,0.2-1.3,0.2S70,55,69.6,54.9c-0.4-0.2-0.8-0.4-1.1-0.7
	c-0.3-0.3-0.6-0.7-0.7-1.1c-0.2-0.4-0.3-0.9-0.3-1.4s0.1-1,0.3-1.4c0.2-0.4,0.4-0.8,0.7-1.1c0.3-0.3,0.7-0.5,1.1-0.7
	S70.5,48.2,70.9,48.2z M70.9,49.5c-0.4,0-0.7,0.1-1.1,0.3c-0.3,0.2-0.5,0.4-0.7,0.8c-0.2,0.3-0.3,0.7-0.3,1.1c0,0.4,0.1,0.8,0.3,1.1
	c0.2,0.3,0.4,0.6,0.7,0.8c0.3,0.2,0.7,0.3,1.1,0.3s0.7-0.1,1-0.3s0.5-0.4,0.7-0.8c0.2-0.3,0.3-0.7,0.3-1.1c0-0.4-0.1-0.8-0.3-1.1
	c-0.2-0.3-0.4-0.6-0.7-0.8S71.3,49.5,70.9,49.5z"/>
<path class="st3" d="M85.4,48.4c0.3,0,0.6,0,0.9,0.1s0.6,0.2,0.8,0.4c0.2,0.2,0.4,0.4,0.6,0.7c0.1,0.3,0.2,0.6,0.2,0.9
	c0,0.4-0.1,0.7-0.3,1c-0.2,0.3-0.4,0.5-0.8,0.6c-0.3,0.1-0.7,0.2-1,0.3l2.4,2.5h-1.8l-2.3-2.7v2.7h-1.4v-6.5H85.4z M84.1,49.6v1.7
	c0.2,0.1,0.3,0.1,0.5,0.1s0.4,0,0.6,0c0.4,0,0.7-0.1,0.9-0.2c0.2-0.2,0.4-0.4,0.4-0.7s-0.1-0.5-0.4-0.7c-0.2-0.1-0.5-0.2-0.9-0.2
	L84.1,49.6L84.1,49.6z"/>
<path class="st3" d="M97.5,48.4v2.9l2.5-2.9h1.7l-2.6,2.9L102,55h-1.8l-2-2.6l-0.7,0.8V55h-1.4v-6.5L97.5,48.4L97.5,48.4z"/>
<path class="st3" d="M111.9,48.3c0.4,0,0.7,0.1,1,0.2c0.3,0.1,0.6,0.2,0.8,0.4v1.3c-0.2-0.1-0.5-0.3-0.8-0.4
	c-0.3-0.1-0.6-0.2-0.9-0.2c-0.2,0-0.3,0-0.5,0.1s-0.3,0.1-0.4,0.2c-0.1,0.1-0.2,0.2-0.2,0.4s0.1,0.4,0.3,0.5
	c0.2,0.1,0.4,0.2,0.7,0.3l0.8,0.3c0.5,0.2,0.8,0.4,1,0.7s0.3,0.6,0.3,1s-0.1,0.7-0.3,1c-0.2,0.3-0.5,0.5-0.9,0.7s-0.8,0.3-1.2,0.3
	c-0.4,0-0.8-0.1-1.1-0.2c-0.4-0.1-0.7-0.3-0.9-0.5v-1.3c0.3,0.2,0.6,0.4,0.9,0.5s0.7,0.2,1.1,0.2c0.3,0,0.5-0.1,0.7-0.2
	c0.2-0.1,0.3-0.3,0.3-0.5s-0.1-0.3-0.2-0.4c-0.2-0.1-0.3-0.2-0.5-0.3l-1-0.4c-0.5-0.2-0.9-0.4-1-0.8c-0.2-0.3-0.3-0.7-0.3-1.1
	c0-0.4,0.1-0.7,0.3-1c0.2-0.3,0.5-0.5,0.9-0.7C111.1,48.3,111.5,48.3,111.9,48.3z"/>
<path class="st3" d="M123.8,48.4v2.7h3v-2.7h1.3v6.5h-1.3v-2.7h-3v2.7h-1.4v-6.5H123.8z"/>
<path class="st3" d="M140,48.2c0.5,0,0.9,0.1,1.3,0.3c0.4,0.2,0.8,0.4,1.1,0.7s0.6,0.7,0.7,1.1c0.2,0.4,0.3,0.9,0.3,1.4
	s-0.1,1-0.3,1.4s-0.4,0.8-0.7,1.1s-0.7,0.5-1.1,0.7c-0.4,0.2-0.8,0.2-1.3,0.2s-0.9-0.1-1.3-0.2c-0.4-0.2-0.8-0.4-1.1-0.7
	s-0.6-0.7-0.7-1.1c-0.2-0.4-0.3-0.9-0.3-1.4s0.1-1,0.3-1.4s0.4-0.8,0.7-1.1s0.7-0.5,1.1-0.7C139,48.3,139.5,48.2,140,48.2z
	 M140,49.5c-0.4,0-0.7,0.1-1.1,0.3c-0.3,0.2-0.5,0.4-0.7,0.8s-0.3,0.7-0.3,1.1c0,0.4,0.1,0.8,0.3,1.1s0.4,0.6,0.7,0.8
	s0.7,0.3,1.1,0.3c0.4,0,0.7-0.1,1-0.3s0.5-0.4,0.7-0.8c0.2-0.3,0.3-0.7,0.3-1.1c0-0.4-0.1-0.8-0.3-1.1s-0.4-0.6-0.7-0.8
	S140.3,49.5,140,49.5z"/>
<path class="st3" d="M154.4,48.4c0.3,0,0.6,0.1,0.9,0.2c0.3,0.1,0.6,0.3,0.8,0.5s0.4,0.4,0.6,0.7c0.1,0.3,0.2,0.6,0.2,1
	s-0.1,0.8-0.3,1.2c-0.2,0.3-0.5,0.6-0.9,0.8s-0.8,0.3-1.2,0.3c-0.3,0-0.6,0-0.8-0.1s-0.4-0.1-0.6-0.2V55h-1.4v-6.5L154.4,48.4
	L154.4,48.4z M153,49.6v1.9c0.1,0.1,0.3,0.1,0.5,0.2c0.2,0,0.4,0.1,0.6,0.1c0.4,0,0.7-0.1,0.9-0.3s0.4-0.5,0.4-0.8s-0.1-0.6-0.4-0.8
	c-0.3-0.2-0.6-0.3-0.9-0.3L153,49.6L153,49.6z"/>
<path class="st3" d="M20.1,1.2L32,26.9h-6.2l-1.9-4.8H13.7l-1.9,4.8H5.6L17.5,1.2H20.1z M18.8,9.9l-3.2,7.8H22L18.8,9.9z"/>
<path class="st3" d="M43.4,1.4v11.4l9.7-11.4h6.7l-10,11.2L61,26.9h-7l-7.8-10.3l-2.8,3.1v7.2h-5.3V1.4H43.4z"/>
<path class="st3" d="M74.3,0.9c1.5,0,2.8,0.2,4,0.6s2.2,0.9,3.1,1.4v5.2c-0.9-0.6-1.9-1.1-2.9-1.6S76.3,5.8,75,5.8
	c-0.7,0-1.3,0.1-2,0.3c-0.6,0.2-1.2,0.5-1.6,0.9s-0.6,0.9-0.6,1.6c0,0.8,0.4,1.5,1.1,1.9s1.6,0.9,2.7,1.3l3.1,1.3
	c1.8,0.8,3.1,1.7,3.9,2.8c0.8,1.1,1.3,2.3,1.3,3.7c0,1.5-0.4,2.9-1.3,4s-2,2-3.5,2.7c-1.4,0.7-3.1,1-4.8,1c-1.5,0-2.9-0.3-4.3-0.8
	s-2.6-1.1-3.6-1.9v-5.2c1.1,0.8,2.3,1.5,3.7,2.1c1.3,0.6,2.8,0.8,4.3,0.8c1.1,0,2-0.2,2.7-0.6c0.8-0.4,1.1-1.1,1.1-1.9
	c0-0.7-0.3-1.2-1-1.6c-0.6-0.4-1.3-0.8-2-1.1l-3.9-1.5c-2-0.8-3.3-1.8-4-3s-1-2.6-1-4.1s0.4-2.9,1.3-4c0.9-1.2,2-2.1,3.4-2.7
	C71.2,1.2,72.7,0.9,74.3,0.9z"/>
<path class="st3" d="M106.7,11.8v4.3H95.4v6.2h12.8V27H90.1V1.4h18.1V6H95.4v5.8H106.7z"/>
<path class="st3" d="M139.3,1.4v25.7h-1.9l-15.1-15.6v15.4H117V1.2h1.9L134,17V1.4H139.3z"/>
<path class="st3" d="M203.2,1.4l-11.9,25.7h-2.6L176.8,1.4h6.2l7,16.9l7-16.9H203.2z"/>
<path class="st3" d="M172.4,8.8c-0.7-1.6-1.7-3-2.9-4.2s-2.6-2.1-4.2-2.7c-1.6-0.7-3.3-1-5.1-1s-3.6,0.3-5.2,1
	c-1.6,0.6-3,1.5-4.3,2.7c-1.2,1.2-2.2,2.6-2.9,4.2s-1,3.4-1,5.4s0.3,3.8,1,5.4s1.7,3,2.9,4.2s2.7,2.1,4.3,2.7s3.4,1,5.2,1
	s3.5-0.3,5.1-1s3-1.6,4.2-2.7c1.2-1.2,2.2-2.6,2.9-4.2s1.1-3.4,1.1-5.4S173.1,10.4,172.4,8.8z M159,20.4L159,20.4L159,20.4
	c-0.1,0.1-0.1,0.1-0.1,0.1l-4.9,3.4l1-6l0,0c0.2-1.2,1.2-2,2.5-2c1.4,0,2.5,1.1,2.5,2.5C160,19.2,159.6,20,159,20.4z M167,18.4
	c-0.7,1.2-1.6,2.2-2.8,3c-0.6,0.4-1.3,0.6-2,0.8c1.1-1.1,1.8-2.6,1.8-4.3c0-3.3-2.7-6-6-6c-2.6,0-4.8,1.7-5.6,4
	c-0.1-0.6-0.2-1.1-0.2-1.7c0-1.6,0.3-3,1-4.3c0.7-1.2,1.6-2.2,2.8-3c1.2-0.7,2.6-1.1,4.1-1.1s2.9,0.4,4.1,1.1c1.2,0.7,2.1,1.7,2.8,3
	c0.7,1.2,1,2.7,1,4.3C168.1,15.7,167.7,17.2,167,18.4z"/>
</svg>
